HIERARCHY
ROOT Hips
{
	OFFSET	0.00	0.00	0.00
	CHANNELS 6 Xposition Yposition Zposition Zrotation Xrotation Yrotation
	JOINT LeftUpLeg
	{
		OFFSET	 0.126116	-0.014019	-0.065224
		CHANNELS 3 Zrotation Xrotation Yrotation
		JOINT LeftLeg
		{
			OFFSET	 0.000000	 0.000000	 0.569914
			CHANNELS 3 Zrotation Xrotation Yrotation
			JOINT LeftFoot
			{
				OFFSET	 0.000000	 0.000000	 0.544423
				CHANNELS 3 Zrotation Xrotation Yrotation
				JOINT LeftToeBase
				{
					OFFSET	 0.000000	 0.000000	 0.207117
					CHANNELS 3 Zrotation Xrotation Yrotation
					End Site
					{
						OFFSET	 0.000000	 0.000000	 0.207117
					}
				}
			}
		}
	}
	JOINT RightUpLeg
	{
		OFFSET	-0.124023	-0.008373	-0.065224
		CHANNELS 3 Zrotation Xrotation Yrotation
		JOINT RightLeg
		{
			OFFSET	 0.000000	 0.000000	 0.570047
			CHANNELS 3 Zrotation Xrotation Yrotation
			JOINT RightFoot
			{
				OFFSET	 0.000000	 0.000000	 0.544354
				CHANNELS 3 Zrotation Xrotation Yrotation
				JOINT RightToeBase
				{
					OFFSET	 0.000000	 0.000000	 0.207540
					CHANNELS 3 Zrotation Xrotation Yrotation
					End Site
					{
						OFFSET	 0.000000	 0.000000	 0.207540
					}
				}
			}
		}
	}
	JOINT Spine
	{
		OFFSET	 0.000184	-0.007763	 0.117403
		CHANNELS 3 Zrotation Xrotation Yrotation
		JOINT Spine1
		{
			OFFSET	 0.000000	 0.000000	 0.137269
			CHANNELS 3 Zrotation Xrotation Yrotation
			JOINT Spine2
			{
				OFFSET	 0.000000	 0.000000	 0.156879
				CHANNELS 3 Zrotation Xrotation Yrotation
				JOINT LeftShoulder
				{
					OFFSET	 0.080501	-0.002496	 0.160144
					CHANNELS 3 Zrotation Xrotation Yrotation
					JOINT LeftArm
					{
						OFFSET	 0.000000	 0.000000	 0.164363
						CHANNELS 3 Zrotation Xrotation Yrotation
						JOINT LeftForeArm
						{
							OFFSET	 0.000000	 0.000000	 0.364576
							CHANNELS 3 Zrotation Xrotation Yrotation
							JOINT LeftHand
							{
								OFFSET	 0.000000	 0.000000	 0.360812
								CHANNELS 3 Zrotation Xrotation Yrotation
								JOINT LeftHandIndex1
								{
									OFFSET	 0.000000	 0.000000	 0.086006
									CHANNELS 3 Zrotation Xrotation Yrotation
									JOINT LeftHandIndex2
									{
										OFFSET	 0.000000	 0.000000	 0.047237
										CHANNELS 3 Zrotation Xrotation Yrotation
										JOINT LeftHandIndex3
										{
											OFFSET	-0.004284	-0.000551	 0.038165
											CHANNELS 3 Zrotation Xrotation Yrotation
											End Site
											{
												OFFSET	-0.004284	-0.000551	 0.038165
											}
										}
									}
								}
							}
						}
					}
				}
				JOINT Neck
				{
					OFFSET	 0.000000	 0.000000	 0.176489
					CHANNELS 3 Zrotation Xrotation Yrotation
					JOINT Head
					{
						OFFSET	 0.000000	-0.001747	 0.077940
						CHANNELS 3 Zrotation Xrotation Yrotation
						End Site
						{
							OFFSET	 0.000000	-0.001747	 0.077940
						}
					}
				}
				JOINT RightShoulder
				{
					OFFSET	-0.080363	 0.000306	 0.159706
					CHANNELS 3 Zrotation Xrotation Yrotation
					JOINT RightArm
					{
						OFFSET	 0.000000	 0.000000	 0.164196
						CHANNELS 3 Zrotation Xrotation Yrotation
						JOINT RightForeArm
						{
							OFFSET	 0.000000	 0.000000	 0.365611
							CHANNELS 3 Zrotation Xrotation Yrotation
							JOINT RightHand
							{
								OFFSET	 0.000000	 0.000000	 0.360648
								CHANNELS 3 Zrotation Xrotation Yrotation
								JOINT RightHandIndex1
								{
									OFFSET	 0.000000	 0.000000	 0.069977
									CHANNELS 3 Zrotation Xrotation Yrotation
									JOINT RightHandIndex2
									{
										OFFSET	 0.000000	 0.000000	 0.052305
										CHANNELS 3 Zrotation Xrotation Yrotation
										JOINT RightHandIndex3
										{
											OFFSET	 0.009002	-0.000782	 0.042196
											CHANNELS 3 Zrotation Xrotation Yrotation
											End Site
											{
												OFFSET	 0.009002	-0.000782	 0.042196
											}
										}
									}
								}
							}
						}
					}
				}
			}
		}
	}
}
MOTION
Frames:    7
Frame Time: 0.03333334
-0.717282	-0.005984	 1.273141	-176.181100	-6.581109	 0.085822	 12.228210	 6.079626	 176.128000	-6.221155	-7.788491	-1.047594	-2.373584	 67.898970	-4.411074	-2.385833	 28.452760	 0.000004	-9.707545	 4.888969	-177.839100	 3.578724	-12.391320	 0.816395	 4.975896	 70.030650	-0.234184	 2.384659	 28.388700	-0.000001	 2.994812	 6.825669	-2.856949	 3.237764	 14.177570	 8.935937	-12.290590	-10.779480	-12.068370	-91.776120	 78.527420	 180.000000	-1.302802	-2.901938	 1.213513	-14.443640	-2.127970	-28.284600	-1.921192	-11.197980	-2.349620	-4.130354	 21.526190	 0.991307	-5.167926	 0.731697	 3.519349	-1.378229	 35.397820	-2.634230	-9.357178	 1.501352	 4.797705	-7.731919	-17.647230	-7.088070	 89.782080	 78.203870	 180.000000	 37.065790	-5.562341	 18.542490	 8.471194	-0.030457	 0.509031	 29.572310	 58.063030	 7.928157	 5.716295	 19.173350	-3.684826	 5.027458	 0.246833	-9.377971	-2.350882	 35.473990	 5.254307
-0.717290	-0.005978	 1.273131	-176.139100	-6.582922	 0.104943	 12.152580	 6.039737	 176.120200	-6.174742	-7.868493	-1.051805	-2.517857	 67.972730	-4.306251	-2.385833	 28.452760	 0.000004	-9.643970	 4.916259	-177.871600	 3.536283	-12.364130	 0.805501	 5.197508	 70.061860	-0.432560	 2.384659	 28.388700	-0.000001	 2.941448	 6.843622	-2.917554	 3.209023	 14.092690	 9.017039	-12.242410	-10.651990	-12.069300	-91.776190	 78.527360	-180.000000	-1.341842	-2.883483	 1.242440	-14.301750	-2.212101	-28.363590	-1.890475	-11.136670	-2.363862	-4.130354	 21.526190	 0.991307	-5.167926	 0.731697	 3.519349	-1.378229	 35.397820	-2.634230	-9.334814	 1.479771	 4.855769	-7.703665	-17.538200	-7.200893	 89.782040	 78.203920	-180.000000	 36.817250	-5.632848	 18.517330	 8.470991	-0.030450	 0.509244	 29.102260	 57.984520	 9.241345	 5.716295	 19.173350	-3.684826	 5.027458	 0.246833	-9.377971	-2.350882	 35.473990	 5.254307
-0.717424	-0.005955	 1.273032	-175.987400	-6.618881	-0.009623	 12.209530	 6.196790	 176.215000	-6.191303	-7.642193	-1.023992	-2.766606	 68.039900	-4.023504	-2.385833	 28.452760	 0.000004	-9.517491	 4.852817	-177.769800	 3.542968	-12.597070	 0.821896	 4.969254	 70.189280	-0.187031	 2.384659	 28.388700	-0.000001	 2.755469	 6.989602	-2.834522	 3.132082	 13.743240	 9.093728	-12.095750	-10.272150	-11.944560	-91.776150	 78.527380	 180.000000	-1.471266	-2.809637	 1.430626	-13.881810	-2.487952	-28.829910	-1.938435	-11.084510	-2.399534	-4.130354	 21.526190	 0.991307	-5.167926	 0.731697	 3.519349	-1.378229	 35.397820	-2.634230	-9.253550	 1.365226	 4.867110	-7.627421	-17.221240	-7.260570	 89.782160	 78.203870	 179.999900	 36.459510	-5.600504	 18.438800	 8.435684	-0.031010	 0.512681	 28.055520	 59.107220	 14.254490	 5.716295	 19.173350	-3.684826	 5.027458	 0.246833	-9.377971	-2.350882	 35.473990	 5.254307
-0.717817	-0.005924	 1.272774	-175.862800	-6.551722	-0.428146	 12.830700	 6.682127	 176.532400	-6.359032	-6.642606	-0.910484	-3.474694	 67.538380	-3.056144	-2.385833	 28.452760	 0.000004	-8.846457	 4.376968	-177.452900	 3.421527	-13.471840	 0.849537	 3.686213	 70.729910	 1.363396	 2.384659	 28.388700	-0.000001	 2.426234	 7.128153	-2.244658	 2.956828	 12.915340	 8.851410	-11.623760	-9.472278	-11.446100	-91.776180	 78.527430	 180.000000	-2.050883	-2.255564	 2.306387	-13.498740	-2.945779	-30.980020	-2.340252	-11.120740	-2.440911	-4.130354	 21.526190	 0.991307	-5.167926	 0.731697	 3.519349	-1.378229	 35.397820	-2.634230	-8.809161	 0.711253	 4.495390	-7.294267	-16.211480	-6.306053	 89.782130	 78.203850	 180.000000	 34.928450	-4.565929	 13.732220	 8.020136	-0.662435	 9.681077	 31.009290	 60.427440	 18.710750	 5.716295	 19.173350	-3.684826	 5.027458	 0.246833	-9.377971	-2.350882	 35.473990	 5.254307
-0.718144	-0.005911	 1.272629	-175.894100	-6.182894	 0.256597	 13.206750	 4.795048	 175.835000	-6.355896	-9.486465	-1.296614	-4.360723	 69.607750	-2.256930	-2.385833	 28.452760	 0.000004	-8.255580	 4.771319	-178.294300	 3.146870	-12.327130	 0.719684	 3.791451	 70.030500	 1.468491	 2.384659	 28.388700	-0.000001	 2.199138	 7.196360	-3.518947	 2.553674	 10.741090	 9.521211	-10.714730	-6.971355	-10.897050	-91.776180	 78.527380	-180.000000	-2.930307	-0.645020	 4.366596	-13.331890	-3.685007	-35.978970	-2.159905	-10.814950	-2.500096	-4.130354	 21.526190	 0.991307	-5.167926	 0.731697	 3.519349	-1.378229	 35.397820	-2.634230	-8.245736	 0.386480	 4.457304	-6.832333	-14.650030	-6.664346	 89.782100	 78.203900	 180.000000	 33.587810	-2.998689	 8.202844	 6.380930	-2.125710	 21.011500	 30.744630	 61.362630	 24.249420	 5.716295	 19.173350	-3.684826	 5.027458	 0.246833	-9.377971	-2.350882	 35.473990	 5.254307
-0.718504	-0.005967	 1.272331	-176.108500	-5.331427	 0.395622	 14.170770	 2.935595	 175.655700	-6.377231	-11.587170	-1.584400	-4.778431	 70.438230	-1.892654	-2.385833	 28.452760	 0.000004	-7.318069	 3.733535	-178.653700	 3.061805	-13.128410	 0.746284	 4.030452	 70.873150	 1.267775	 2.384659	 28.388700	-0.000001	 1.914253	 7.444862	-4.100227	 2.057074	 6.853929	 10.318710	-9.552608	-3.522791	-10.482710	-91.776160	 78.527420	 180.000000	-4.978017	 2.971288	 7.953749	-13.890040	-4.467421	-44.696900	-2.169688	-10.936780	-2.473533	-4.130354	 21.526190	 0.991307	-5.167926	 0.731697	 3.519349	-1.378229	 35.397820	-2.634230	-7.350993	-0.254224	 3.768387	-6.244456	-12.870200	-5.904994	 89.782120	 78.203890	 180.000000	 31.439540	-0.546289	 2.045411	 5.889096	-4.074955	 34.027650	 32.023820	 60.942410	 25.756080	 5.716295	 19.173350	-3.684826	 5.027458	 0.246833	-9.377971	-2.350882	 35.473990	 5.254307
-0.719016	-0.006099	 1.271771	-176.891000	-4.636000	 0.157495	 15.368350	 1.509452	 175.701900	-6.801928	-13.675170	-1.967007	-5.804045	 71.907390	-0.508218	-2.385833	 28.452760	 0.000004	-6.233739	 2.459787	-178.516300	 2.949976	-14.981930	 0.820384	 4.371086	 72.364620	 1.011782	 2.384659	 28.388700	-0.000001	 2.085820	 8.437399	-4.311487	 1.566433	 1.407359	 10.954100	-8.472176	 1.019319	-9.933163	-91.776240	 78.527420	-180.000000	-7.090860	 9.460117	 13.210490	-15.348530	-4.761427	-57.366780	-2.066595	-11.077470	-2.425811	-4.130354	 21.526190	 0.991307	-5.167926	 0.731697	 3.519349	-1.378229	 35.397820	-2.634230	-6.834955	-0.489156	 3.423520	-5.901643	-11.150700	-5.730766	 89.782120	 78.203870	 180.000000	 28.950460	 4.014794	-5.004978	 6.602845	-6.380950	 50.179070	 35.082400	 57.411500	 21.924900	 5.716295	 19.173350	-3.684826	 5.027458	 0.246833	-9.377971	-2.350882	 35.473990	 5.254307
